<svg version="1.1" xmlns="http://www.w3.org/2000/svg" xmlns:xlink="http://www.w3.org/1999/xlink" width="50px" height="50px" viewBox="0,0,256,256"><g fill="#494949" fill-rule="nonzero" stroke="none" stroke-width="1" stroke-linecap="butt" stroke-linejoin="miter" stroke-miterlimit="10" stroke-dasharray="" stroke-dashoffset="0" font-family="none" font-weight="none" font-size="none" text-anchor="none" style="mix-blend-mode: normal"><g transform="scale(5.12,5.12)"><path d="M28.99219,8.54688c-5.21372,0 -9.6075,3.11381 -11.73047,7.52344c-1.13222,-0.78316 -2.43092,-1.34766 -3.90625,-1.34766c-3.71539,0 -6.70288,2.94116 -6.92578,6.60156c-3.72377,1.34622 -6.42969,4.82819 -6.42969,9.00586c0,5.32838 4.34066,9.66992 9.66992,9.66992h31.42773c4.90521,0 8.90234,-3.99606 8.90234,-8.90039c0,-4.55083 -3.48896,-8.18131 -7.9043,-8.70117c0.01501,-0.23557 0.04688,-0.459 0.04688,-0.70313c0,-7.25039 -5.89898,-13.14844 -13.15039,-13.14844zM28.99219,10.54688c6.17059,0 11.15039,4.97883 11.15039,11.14844c0,0.4551 -0.03792,0.91486 -0.0957,1.38281l-0.13867,1.12109h1.13086c0.12,0 0.1386,-0.00195 0.05859,-0.00195c3.82464,0.00005 6.90234,3.07867 6.90234,6.90234c0,3.82367 -3.07755,6.90039 -6.90234,6.90039h-31.42773c-4.24873,0 -7.66992,-3.4223 -7.66992,-7.66992c0,-3.53637 2.38612,-6.489 5.62695,-7.38477l0.75977,-0.20898l-0.02734,-0.78906c-0.005,-0.14002 -0.01172,-0.21023 -0.01172,-0.2168c0,-2.77751 2.22914,-5.00781 5.00781,-5.00781c1.38892,0 2.63583,0.56189 3.54297,1.4707l1.10352,1.10547l0.54297,-1.46484c1.5726,-4.24988 5.64014,-7.28711 10.44727,-7.28711zM19.0625,22c-3.132,0 -5.0625,2.09409 -5.0625,5.49609c0,3.408 1.9375,5.50391 5.0625,5.50391c2.602,0 4.5005,-1.55736 4.6875,-3.81836h-2.19727c-0.217,1.152 -1.18942,1.89063 -2.48242,1.89063c-1.704,0 -2.75977,-1.36922 -2.75977,-3.57422c0,-2.205 1.05495,-3.56836 2.75195,-3.56836c1.286,0 2.26542,0.79114 2.48242,1.99414h2.19727c-0.165,-2.277 -2.12269,-3.92383 -4.67969,-3.92383zM30.00781,22c-3.055,0 -5.00781,2.10109 -5.00781,5.49609c0,3.393 1.92381,5.50391 5.00781,5.50391c3.076,0 4.99219,-2.11091 4.99219,-5.50391c0,-3.387 -1.92319,-5.49609 -4.99219,-5.49609zM30.00781,23.92188c1.693,0 2.77344,1.38422 2.77344,3.57422c0,2.183 -1.08044,3.58203 -2.77344,3.58203c-1.708,0 -2.78125,-1.40003 -2.78125,-3.58203c0,-2.19 1.09525,-3.57422 2.78125,-3.57422zM38.5,28.60547c-1.508,0 -2.5,0.85153 -2.5,2.14453v0.0332h1.64258v-0.04102c0,-0.435 0.31434,-0.72852 0.77734,-0.72852c0.436,0 0.74414,0.26725 0.74414,0.65625c0,0.382 -0.22769,0.66294 -1.17969,1.46094l-1.85742,1.60156v1.26758h4.87305v-1.42773h-2.4668v-0.12109l0.76367,-0.65039c1.173,-0.864 1.60156,-1.50783 1.60156,-2.29883c0,-1.153 -0.93744,-1.89648 -2.39844,-1.89648z"></path></g></g></svg>