<svg version="1.1" xmlns="http://www.w3.org/2000/svg" xmlns:xlink="http://www.w3.org/1999/xlink" width="48px" height="48px" viewBox="0,0,256,256"><defs><linearGradient x1="9.858" y1="9.858" x2="38.142" y2="38.142" gradientUnits="userSpaceOnUse" id="color-1"><stop offset="0" stop-color="#33b2f0"></stop><stop offset="1" stop-color="#0a76d9"></stop></linearGradient></defs><g fill="none" fill-rule="nonzero" stroke="none" stroke-width="1" stroke-linecap="butt" stroke-linejoin="miter" stroke-miterlimit="10" stroke-dasharray="" stroke-dashoffset="0" font-family="none" font-weight="none" font-size="none" text-anchor="none" style="mix-blend-mode: normal"><g transform="scale(5.33333,5.33333)"><path d="M44,24c0,11.045 -8.955,20 -20,20c-11.045,0 -20,-8.955 -20,-20c0,-11.045 8.955,-20 20,-20c11.045,0 20,8.955 20,20z" fill="url(#color-1)"></path><path d="M27.675,33.412c0,1.923 -1.438,3.267 -3.499,3.267c-1.716,0 -3.54,-1.145 -3.54,-3.267c0,-2.104 1.824,-3.24 3.54,-3.24c1.739,0 3.499,1.113 3.499,3.24z" fill="#000000" opacity="0.05"></path><path d="M24.312,12c-2.57,0 -4.638,0.884 -5.65,1.416c-0.421,0.221 -0.676,0.66 -0.676,1.135v5.112c0,0.496 0.587,0.75 0.952,0.413c1.004,-0.928 2.734,-2.157 4.851,-2.157c0.509,0 1.363,0.15 1.363,1.154c0,0.989 -0.595,1.557 -1.645,2.475c-1.26,1.101 -2.828,2.472 -2.828,5.26c0,0.866 0.163,1.577 0.323,2.065c0.145,0.441 0.566,0.73 1.031,0.73c0,0 3.435,-0.006 3.927,-0.006c1.158,0 1.053,-0.85 0.899,-1.271c-0.099,-0.272 -0.291,-0.692 -0.291,-1.084c0,-0.957 0.673,-1.574 1.863,-2.583c1.536,-1.302 3.448,-2.923 3.448,-6.245c0.002,-4.016 -2.827,-6.414 -7.567,-6.414z" fill="#000000" opacity="0.05"></path><path d="M24.176,30.672c1.461,0 2.999,0.888 2.999,2.74c0,1.75 -1.351,2.767 -2.999,2.767c-1.475,0 -3.04,-0.958 -3.04,-2.767c0,-1.8 1.59,-2.74 3.04,-2.74z" fill="#000000" opacity="0.07"></path><path d="M18.987,13.803c0.95,-0.508 2.811,-1.303 5.326,-1.303c5.612,0 7.068,3.428 7.068,5.916c0,3.046 -1.725,4.551 -3.204,5.806c-0.984,0.834 -1.627,1.465 -1.909,2.298c-0.311,0.919 0.145,1.612 0.156,1.646c0.128,0.37 0.019,0.936 -0.816,0.936c-0.696,0.001 -3.117,0.002 -3.117,0.002c-0.232,0 -0.92,-0.144 -0.993,-0.365c-0.122,-0.349 -0.303,-1.046 -0.316,-1.804c-0.002,-0.084 -0.001,-0.169 0,-0.253c0.054,-2.699 1.728,-3.904 2.998,-5.067c0.891,-0.809 1.472,-1.473 1.472,-2.542c0,-0.936 -0.612,-1.266 -1.089,-1.426c-0.601,-0.202 -1.252,-0.167 -1.622,-0.099c-1.341,0.249 -2.486,0.843 -3.289,1.435c-0.383,0.282 -0.846,0.277 -0.983,0.135c-0.076,0.059 -0.184,-0.339 -0.184,-0.436v-3.868c0,-0.081 0.021,-0.33 0.043,-0.404c0.075,-0.25 0.219,-0.479 0.459,-0.607z" fill="#000000" opacity="0.07"></path><path d="M21.994,28.605c-0.1,-0.259 -0.314,-1.032 -0.314,-1.795c0,-4.345 4.473,-4.512 4.473,-7.735c0,-2.029 -2.005,-2.154 -2.364,-2.154c-2.277,0 -4.055,1.302 -4.803,1.96v-4.503c0.768,-0.46 2.526,-1.378 5.327,-1.378c6.486,0 6.568,4.458 6.568,5.416c0,5.146 -5.311,5.528 -5.311,8.827c0,0.688 0.249,1.192 0.359,1.361h-3.935zM24.176,35.679c-1.235,0 -2.54,-0.77 -2.54,-2.267c0,-1.496 1.356,-2.24 2.54,-2.24c1.184,0 2.499,0.664 2.499,2.24c0,1.576 -1.264,2.267 -2.499,2.267z" fill="#ffffff"></path></g></g></svg>