<svg version="1.1" xmlns="http://www.w3.org/2000/svg" xmlns:xlink="http://www.w3.org/1999/xlink" width="24px" height="24px" viewBox="0,0,256,256"><g fill="#9a9a9a" fill-rule="nonzero" stroke="none" stroke-width="1" stroke-linecap="butt" stroke-linejoin="miter" stroke-miterlimit="10" stroke-dasharray="" stroke-dashoffset="0" font-family="none" font-weight="none" font-size="none" text-anchor="none" style="mix-blend-mode: normal"><g transform="scale(10.66667,10.66667)"><path d="M11,1v2.05859c-4.19428,0.45627 -7.48514,3.74713 -7.94141,7.94141h-2.05859v2h2.05859c0.45627,4.19428 3.74713,7.48514 7.94141,7.94141v2.05859h2v-2.05859c4.19428,-0.45627 7.48514,-3.74713 7.94141,-7.94141h2.05859v-2h-2.05859c-0.45627,-4.19428 -3.74713,-7.48514 -7.94141,-7.94141v-2.05859zM12,5c3.9,0 7,3.1 7,7c0,3.9 -3.1,7 -7,7c-3.9,0 -7,-3.1 -7,-7c0,-3.9 3.1,-7 7,-7zM12,9c-1.65685,0 -3,1.34315 -3,3c0,1.65685 1.34315,3 3,3c1.65685,0 3,-1.34315 3,-3c0,-1.65685 -1.34315,-3 -3,-3z"></path></g></g></svg>