<svg version="1.1" xmlns="http://www.w3.org/2000/svg" xmlns:xlink="http://www.w3.org/1999/xlink" width="50px" height="50px" viewBox="0,0,256,256"><g transform="translate(38.4,38.4) scale(0.7,0.7)"><g fill="#494949" fill-rule="nonzero" stroke="#494949" stroke-width="1" stroke-linecap="butt" stroke-linejoin="miter" stroke-miterlimit="10" stroke-dasharray="" stroke-dashoffset="0" font-family="none" font-weight="none" font-size="none" text-anchor="none" style="mix-blend-mode: normal"><g transform="scale(5.12,5.12)"><path d="M8,-0.15625l-0.8125,1.0625c0,0 -1.78125,2.34375 -3.5625,5.375c-1.78125,3.03125 -3.625,6.67188 -3.625,9.71875c0,4.42969 3.57031,8 8,8c4.42969,0 8,-3.57031 8,-8c0,-3.04687 -1.84375,-6.6875 -3.625,-9.71875c-1.78125,-3.03125 -3.5625,-5.375 -3.5625,-5.375zM8,3.3125c0.54297,0.75 1.30859,1.76563 2.625,4c1.71875,2.92188 3.375,6.53516 3.375,8.6875c0,3.37109 -2.62891,6 -6,6c-3.37109,0 -6,-2.62891 -6,-6c0,-2.15234 1.65625,-5.76562 3.375,-8.6875c1.31641,-2.23437 2.08203,-3.25 2.625,-4zM42,8.9375l-0.78125,1.0625c0,0 -1.8125,2.33984 -3.59375,5.34375c-1.78125,3.00391 -3.625,6.60938 -3.625,9.65625c0,4.42969 3.57031,8 8,8c4.42969,0 8,-3.57031 8,-8c0,-3.04687 -1.84375,-6.65234 -3.625,-9.65625c-1.78125,-3.00391 -3.59375,-5.34375 -3.59375,-5.34375zM42,12.40625c0.53906,0.73438 1.30469,1.73828 2.625,3.96875c1.71875,2.89453 3.375,6.47266 3.375,8.625c0,3.37109 -2.62891,6 -6,6c-3.37109,0 -6,-2.62891 -6,-6c0,-2.15234 1.65625,-5.73047 3.375,-8.625c1.32031,-2.23047 2.08594,-3.23437 2.625,-3.96875zM22,25.84375l-0.8125,1.0625c0,0 -1.78125,2.34375 -3.5625,5.375c-1.78125,3.03125 -3.625,6.67188 -3.625,9.71875c0,4.42969 3.57031,8 8,8c4.42969,0 8,-3.57031 8,-8c0,-3.04687 -1.84375,-6.6875 -3.625,-9.71875c-1.78125,-3.03125 -3.5625,-5.375 -3.5625,-5.375zM22,29.3125c0.54297,0.75 1.30859,1.76563 2.625,4c1.71875,2.92188 3.375,6.53516 3.375,8.6875c0,3.37109 -2.62891,6 -6,6c-3.37109,0 -6,-2.62891 -6,-6c0,-2.15234 1.65625,-5.76562 3.375,-8.6875c1.31641,-2.23437 2.08203,-3.25 2.625,-4z"></path></g></g></g></svg>