<svg version="1.1" xmlns="http://www.w3.org/2000/svg" xmlns:xlink="http://www.w3.org/1999/xlink" width="24px" height="24px" viewBox="0,0,256,256"><g fill="#9a9a9a" fill-rule="nonzero" stroke="none" stroke-width="1" stroke-linecap="butt" stroke-linejoin="miter" stroke-miterlimit="10" stroke-dasharray="" stroke-dashoffset="0" font-family="none" font-weight="none" font-size="none" text-anchor="none" style="mix-blend-mode: normal"><g transform="scale(10.66667,10.66667)"><path d="M7,5c-3.866,0 -7,3.134 -7,7c0,3.866 3.134,7 7,7c3.17067,0 5.84617,-2.10901 6.70703,-5h4.29297v3h4v-3h2v-4h-10.29297c-0.86086,-2.89099 -3.53636,-5 -6.70703,-5zM7,9c1.657,0 3,1.343 3,3c0,1.657 -1.343,3 -3,3c-1.657,0 -3,-1.343 -3,-3c0,-1.657 1.343,-3 3,-3z"></path></g></g></svg>