<svg version="1.1" xmlns="http://www.w3.org/2000/svg" xmlns:xlink="http://www.w3.org/1999/xlink" width="50px" height="50px" viewBox="0,0,256,256"><g transform="translate(25.6,25.6) scale(0.8,0.8)"><g fill="#494949" fill-rule="nonzero" stroke="none" stroke-width="1" stroke-linecap="butt" stroke-linejoin="miter" stroke-miterlimit="10" stroke-dasharray="" stroke-dashoffset="0" font-family="none" font-weight="none" font-size="none" text-anchor="none" style="mix-blend-mode: normal"><g transform="scale(8.53333,8.53333)"><path d="M19,4c-1.73191,0 -3.20824,1.11842 -3.75781,2.66602c-0.12939,0.33915 -0.06485,0.72178 0.16862,0.99973c0.23347,0.27795 0.59922,0.40757 0.95561,0.33867c0.35639,-0.0689 0.64748,-0.32549 0.76053,-0.67043c0.27642,-0.7784 0.99696,-1.33398 1.87305,-1.33398c1.11667,0 2,0.88333 2,2c0,1.11667 -0.88333,2 -2,2h-15c-0.36064,-0.0051 -0.69608,0.18438 -0.87789,0.49587c-0.18181,0.3115 -0.18181,0.69676 0,1.00825c0.18181,0.3115 0.51725,0.50097 0.87789,0.49587h15c2.19733,0 4,-1.80267 4,-4c0,-2.19733 -1.80267,-4 -4,-4zM4,14c-0.36064,-0.0051 -0.69608,0.18438 -0.87789,0.49587c-0.18181,0.3115 -0.18181,0.69676 0,1.00825c0.18181,0.3115 0.51725,0.50097 0.87789,0.49587h18.5c1.39256,0 2.5,1.10744 2.5,2.5c0,1.39256 -1.10744,2.5 -2.5,2.5c-1.26787,0 -2.28514,-0.92704 -2.46094,-2.14258c-0.03939,-0.36358 -0.27408,-0.67667 -0.61202,-0.81645c-0.33794,-0.13978 -0.72523,-0.08396 -1.00994,0.14556c-0.28471,0.22952 -0.42144,0.59615 -0.35656,0.95605c0.3142,2.17246 2.18332,3.85742 4.43945,3.85742c2.47344,0 4.5,-2.02656 4.5,-4.5c0,-2.47344 -2.02656,-4.5 -4.5,-4.5zM4,18c-0.36064,-0.0051 -0.69608,0.18438 -0.87789,0.49587c-0.18181,0.3115 -0.18181,0.69676 0,1.00825c0.18181,0.3115 0.51725,0.50097 0.87789,0.49587h8c1.11667,0 2,0.88333 2,2c0,1.11667 -0.88333,2 -2,2c-0.87609,0 -1.59662,-0.55558 -1.87305,-1.33398c-0.11306,-0.34494 -0.40414,-0.60153 -0.76053,-0.67043c-0.35639,-0.0689 -0.72214,0.06072 -0.95561,0.33867c-0.23347,0.27795 -0.29801,0.66058 -0.16862,0.99973c0.54958,1.5476 2.0259,2.66602 3.75781,2.66602c2.19733,0 4,-1.80267 4,-4c0,-2.19733 -1.80267,-4 -4,-4z"></path></g></g></g></svg>