<svg version="1.1" xmlns="http://www.w3.org/2000/svg" xmlns:xlink="http://www.w3.org/1999/xlink" width="24px" height="24px" viewBox="0,0,256,256"><g fill="#9a9a9a" fill-rule="nonzero" stroke="none" stroke-width="1" stroke-linecap="butt" stroke-linejoin="miter" stroke-miterlimit="10" stroke-dasharray="" stroke-dashoffset="0" font-family="none" font-weight="none" font-size="none" text-anchor="none" style="mix-blend-mode: normal"><g transform="scale(8.53333,8.53333)"><path d="M15,3c-6.627,0 -12,5.373 -12,12c0,6.627 5.373,12 12,12c6.627,0 12,-5.373 12,-12c0,-6.627 -5.373,-12 -12,-12zM15,5c0.552,0 1,0.448 1,1c0,0.552 -0.448,1 -1,1c-0.552,0 -1,-0.448 -1,-1c0,-0.552 0.448,-1 1,-1zM10.37695,6.21289c0.38672,-0.04791 0.78128,0.13369 0.98828,0.49219c0.276,0.478 0.11277,1.09119 -0.36523,1.36719c-0.478,0.276 -1.08923,0.11081 -1.36523,-0.36719c-0.276,-0.479 -0.11277,-1.08923 0.36523,-1.36523c0.1195,-0.069 0.24805,-0.11098 0.37695,-0.12695zM19.62305,6.21289c0.12891,0.01605 0.25745,0.05795 0.37695,0.12695c0.478,0.276 0.64123,0.88723 0.36523,1.36523c-0.276,0.478 -0.88723,0.64319 -1.36523,0.36719c-0.478,-0.276 -0.64123,-0.88919 -0.36523,-1.36719c0.207,-0.35925 0.60156,-0.54033 0.98828,-0.49219zM7.33008,9.50781c0.12891,0.01597 0.2555,0.05795 0.375,0.12695c0.478,0.276 0.64319,0.88723 0.36719,1.36523c-0.276,0.478 -0.88919,0.64123 -1.36719,0.36523c-0.479,-0.276 -0.64123,-0.88723 -0.36523,-1.36523c0.207,-0.3585 0.60352,-0.54009 0.99023,-0.49219zM22.67578,9.53711c0.38681,-0.0465 0.78203,0.13564 0.98828,0.49414c0.274,0.479 0.10986,1.09123 -0.36914,1.36523l-6.29492,3.60938c-0.004,1.101 -0.897,1.99414 -2,1.99414c-0.365,0 -0.70209,-0.10439 -0.99609,-0.27539l-2.18555,1.25195c-0.157,0.09 -0.32905,0.13281 -0.49805,0.13281c-0.347,0 -0.68414,-0.17995 -0.86914,-0.50195c-0.274,-0.479 -0.10791,-1.09124 0.37109,-1.36523l2.17773,-1.24805c0.004,-1.102 0.898,-1.99414 2,-1.99414c0.365,0 0.70109,0.10439 0.99609,0.27539l6.30273,-3.61328c0.11975,-0.0685 0.24802,-0.1095 0.37695,-0.125zM6,14c0.552,0 1,0.448 1,1c0,0.552 -0.448,1 -1,1c-0.552,0 -1,-0.448 -1,-1c0,-0.552 0.448,-1 1,-1zM24,14c0.552,0 1,0.448 1,1c0,0.552 -0.448,1 -1,1c-0.552,0 -1,-0.448 -1,-1c0,-0.552 0.448,-1 1,-1zM7.08203,18.50781c0.38672,-0.04791 0.78323,0.13369 0.99023,0.49219c0.276,0.478 0.11081,1.08923 -0.36719,1.36523c-0.479,0.276 -1.08923,0.11277 -1.36523,-0.36523c-0.276,-0.478 -0.11277,-1.08923 0.36523,-1.36523c0.1195,-0.069 0.24805,-0.11098 0.37695,-0.12695zM22.91797,18.50781c0.12891,0.01597 0.25745,0.05795 0.37695,0.12695c0.479,0.276 0.64123,0.88723 0.36523,1.36523c-0.276,0.478 -0.88723,0.64123 -1.36523,0.36523c-0.478,-0.276 -0.64319,-0.88723 -0.36719,-1.36523c0.207,-0.3585 0.60352,-0.54009 0.99023,-0.49219z"></path></g></g></svg>