<svg version="1.1" xmlns="http://www.w3.org/2000/svg" xmlns:xlink="http://www.w3.org/1999/xlink" width="24px" height="24px" viewBox="0,0,256,256"><g fill="#9a9a9a" fill-rule="nonzero" stroke="none" stroke-width="1" stroke-linecap="butt" stroke-linejoin="miter" stroke-miterlimit="10" stroke-dasharray="" stroke-dashoffset="0" font-family="none" font-weight="none" font-size="none" text-anchor="none" style="mix-blend-mode: normal"><g transform="scale(8.53333,8.53333)"><path d="M4.98438,3.98633c-0.55152,0.00862 -0.99193,0.46214 -0.98437,1.01367v20c-0.0051,0.36064 0.18438,0.69608 0.49587,0.87789c0.3115,0.18181 0.69676,0.18181 1.00825,0c0.3115,-0.18181 0.50097,-0.51725 0.49587,-0.87789v-8.97266c0.07436,-0.00088 0.14838,-0.01005 0.2207,-0.02734h0.52148c0.02944,-0.13612 0.07321,-0.30937 0.10547,-0.45312c0.06609,-0.10774 0.11116,-0.22704 0.13281,-0.35156c0,0 0.49232,-2.44932 1.33789,-4.86523c0.42278,-1.20796 0.93991,-2.40304 1.47266,-3.22266c0.48876,-0.75194 0.92409,-1.04276 1.14453,-1.08789c0.0224,0.02796 0.13372,0.10842 0.30664,0.37891c0.27522,0.43051 0.60258,1.16249 0.92578,2.06445c0.53482,1.49252 1.081,3.48366 1.64258,5.53711h-4.52148c-0.174,0.649 -0.33914,1.319 -0.49414,2h5.57813c0.62752,2.25624 1.28089,4.49088 2.03516,6.26563c0.41868,0.98514 0.8592,1.83395 1.40234,2.50391c0.54314,0.66995 1.27279,1.23047 2.18945,1.23047c1.41667,0 2.52823,-0.90416 3.28711,-1.98828c0.75888,-1.08412 1.27735,-2.41603 1.66992,-3.72461c0.78515,-2.61716 1.03711,-5.1875 1.03711,-5.1875c0.04919,-0.33918 -0.07874,-0.67993 -0.33899,-0.90295c-0.26025,-0.22301 -0.61657,-0.29723 -0.94422,-0.19666h-6.82227c0.167,0.61 0.35169,1.285 0.55469,2h5.4082c-0.13321,0.9161 -0.35371,2.19662 -0.80859,3.71289c-0.35742,1.19142 -0.83896,2.35951 -1.39258,3.15039c-0.55362,0.79088 -1.06706,1.13672 -1.65039,1.13672c-0.08333,0 -0.29119,-0.06449 -0.63477,-0.48828c-0.34358,-0.4238 -0.739,-1.13748 -1.11719,-2.02734c-0.75638,-1.77972 -1.47276,-4.25747 -2.1582,-6.75c-0.68545,-2.49253 -1.34172,-5.0012 -2.03906,-6.94727c-0.34867,-0.97303 -0.701,-1.80356 -1.125,-2.4668c-0.424,-0.66324 -0.99523,-1.32031 -1.92578,-1.32031c-1.30556,0 -2.19877,0.9622 -2.88477,2.01758c-0.686,1.05538 -1.23138,2.3603 -1.68359,3.65234c-0.16218,0.46337 -0.29562,0.91072 -0.43164,1.35742v-6.02734c0.0037,-0.2703 -0.10218,-0.53059 -0.29351,-0.72155c-0.19133,-0.19097 -0.45182,-0.29634 -0.72212,-0.29212z"></path></g></g></svg>