<svg version="1.1" xmlns="http://www.w3.org/2000/svg" xmlns:xlink="http://www.w3.org/1999/xlink" width="16px" height="16px" viewBox="0,0,256,256"><g fill="#ffffff" fill-rule="nonzero" stroke="none" stroke-width="1" stroke-linecap="butt" stroke-linejoin="miter" stroke-miterlimit="10" stroke-dasharray="" stroke-dashoffset="0" font-family="none" font-weight="none" font-size="none" text-anchor="none" style="mix-blend-mode: normal"><path d="M128,236.8c-60.08858,0 -108.8,-48.71142 -108.8,-108.8v0c0,-60.08858 48.71142,-108.8 108.8,-108.8v0c60.08858,0 108.8,48.71142 108.8,108.8v0c0,60.08858 -48.71142,108.8 -108.8,108.8z" id="shape"></path></g><g fill="#27cd5c" fill-rule="nonzero" stroke="none" stroke-width="1" stroke-linecap="butt" stroke-linejoin="miter" stroke-miterlimit="10" stroke-dasharray="" stroke-dashoffset="0" font-family="none" font-weight="none" font-size="none" text-anchor="none" style="mix-blend-mode: normal"><g transform="scale(16,16)"><path d="M8,0c-4.418,0 -8,3.582 -8,8c0,4.418 3.582,8 8,8c4.418,0 8,-3.582 8,-8c0,-4.418 -3.582,-8 -8,-8zM7,12l-3.52,-3.52l1.414,-1.414l2.106,2.106l4.71,-4.71l1.414,1.414z"></path></g></g></svg>