<svg version="1.1" xmlns="http://www.w3.org/2000/svg" xmlns:xlink="http://www.w3.org/1999/xlink" width="24px" height="24px" viewBox="0,0,256,256"><g fill="#9a9a9a" fill-rule="nonzero" stroke="none" stroke-width="1" stroke-linecap="butt" stroke-linejoin="miter" stroke-miterlimit="10" stroke-dasharray="" stroke-dashoffset="0" font-family="none" font-weight="none" font-size="none" text-anchor="none" style="mix-blend-mode: normal"><g transform="scale(5.33333,5.33333)"><path d="M24,3c-3.57194,0 -6.5,2.92806 -6.5,6.5v17.99414c-2.11324,1.83178 -3.5,4.49471 -3.5,7.50586c0,5.50482 4.49518,10 10,10c5.50482,0 10,-4.49518 10,-10c0,-3.01115 -1.38676,-5.67408 -3.5,-7.50586v-3.49414h2c0.54095,0.00765 1.04412,-0.27656 1.31683,-0.74381c0.27271,-0.46725 0.27271,-1.04514 0,-1.51238c-0.27271,-0.46725 -0.77588,-0.75146 -1.31683,-0.74381h-2v-2h2c0.54095,0.00765 1.04412,-0.27656 1.31683,-0.74381c0.27271,-0.46725 0.27271,-1.04514 0,-1.51238c-0.27271,-0.46725 -0.77588,-0.75146 -1.31683,-0.74381h-2v-2h2c0.54095,0.00765 1.04412,-0.27656 1.31683,-0.74381c0.27271,-0.46725 0.27271,-1.04514 0,-1.51238c-0.27271,-0.46725 -0.77588,-0.75146 -1.31683,-0.74381h-2v-1.5c0,-3.57194 -2.92806,-6.5 -6.5,-6.5zM24,6c1.95006,0 3.5,1.54994 3.5,3.5v2.75391c-0.02645,0.16103 -0.02645,0.3253 0,0.48633v4.51367c-0.02645,0.16103 -0.02645,0.3253 0,0.48633v4.51367c-0.02645,0.16103 -0.02645,0.3253 0,0.48633v5.39648c0.00013,0.47869 0.2287,0.92857 0.61523,1.21094c1.74848,1.27627 2.88477,3.31889 2.88477,5.65234c0,3.88318 -3.11682,7 -7,7c-3.88318,0 -7,-3.11682 -7,-7c0,-2.33345 1.13629,-4.37607 2.88477,-5.65234c0.38653,-0.28237 0.6151,-0.73225 0.61523,-1.21094v-18.63672c0,-1.95006 1.54994,-3.5 3.5,-3.5zM23.97656,15.97852c-0.82766,0.01293 -1.48843,0.69381 -1.47656,1.52148v12.73047c-2.35446,0.74073 -3.81614,3.08869 -3.44156,5.52833c0.37458,2.43964 2.47334,4.24094 4.94156,4.2412c2.46107,-0.00931 4.54939,-1.80817 4.92311,-4.24072c0.37371,-2.43255 -1.07833,-4.77532 -3.42311,-5.52295v-12.73633c0.00582,-0.40562 -0.15288,-0.7963 -0.43991,-1.08296c-0.28703,-0.28666 -0.67792,-0.44486 -1.08353,-0.43852z"></path></g></g></svg>