<svg width="13" height="24" viewBox="0 0 18 29" fill="none" xmlns="http://www.w3.org/2000/svg">
<path d="M14.4132 17.9661C16.6929 20.1179 18 23.149 18 26.2833C18 27.2774 17.2032 28.0734 16.2248 28.0734H1.77524C0.782762 28.0734 -0.00329238 27.2576 1.03696e-05 26.2659C0.00909293 23.1292 1.3145 20.1104 3.5868 17.9661L7.11001 14.6411C7.27514 14.485 7.3701 14.2646 7.3701 14.0367C7.3701 13.8088 7.27514 13.5883 7.11001 13.4323L3.5868 10.1072C1.30707 7.9555 1.03696e-05 4.9244 1.03696e-05 1.79009C-0.000815318 0.803394 0.794322 0 1.77111 0H16.2272C17.2049 0 17.9992 0.803394 17.9992 1.79009C17.9992 4.92358 16.6921 7.9555 14.4124 10.1072L10.8892 13.4323C10.724 13.5883 10.6291 13.8088 10.6291 14.0367C10.6291 14.2646 10.724 14.485 10.8892 14.6411L14.4132 17.9661ZM15.7252 26.5426L9.58294 20.4003C9.2601 20.0774 8.73744 20.0774 8.41542 20.4003L2.27313 26.5426C2.01304 26.8026 2.19717 27.2477 2.5646 27.2477H15.4338C15.8012 27.2477 15.9853 26.8026 15.7252 26.5426Z" fill="#9A9A9A"/>
</svg>
