<svg width="24" height="24" viewBox="0 0 28 28" fill="none" xmlns="http://www.w3.org/2000/svg">
<path d="M0 0V1.71023L0.119318 1.98864L3.81818 9.26705V24.1818C3.81818 26.2749 5.54333 28 7.63636 28H19.0909C21.1839 28 22.9091 26.2749 22.9091 24.1818V2.54545H24.1818C24.9027 2.54545 25.4545 3.0973 25.4545 3.81818V14H28V3.81818C28 1.72514 26.2749 0 24.1818 0H0ZM3.30114 2.54545H20.3636V5.09091H15.2727V7.63636H20.3636V10.1818H17.8182V12.7273H20.3636V15.2727H15.2727V17.8182H20.3636V20.3636H17.8182V22.9091H20.3636V24.1818C20.3636 24.9027 19.8118 25.4545 19.0909 25.4545H7.63636C6.91548 25.4545 6.36364 24.9027 6.36364 24.1818V8.59091L6.24432 8.3125L3.30114 2.54545Z" fill="#9B9B9B"/>
</svg>
