<svg version="1.1" xmlns="http://www.w3.org/2000/svg" xmlns:xlink="http://www.w3.org/1999/xlink" width="48" height="48" viewBox="0,0,256,256"><g fill="none" fill-rule="nonzero" stroke="none" stroke-width="1" stroke-linecap="butt" stroke-linejoin="miter" stroke-miterlimit="10" stroke-dasharray="" stroke-dashoffset="0" font-family="none" font-weight="none" font-size="none" text-anchor="none" style="mix-blend-mode: normal"><g transform="scale(5.33333,5.33333)"><path d="M40,40h-32c-0.717,0 -1.377,-0.383 -1.734,-1.004c-0.356,-0.621 -0.354,-1.385 0.007,-2.004l16,-28c0.358,-0.614 1.016,-0.992 1.727,-0.992c0.711,0 1.369,0.378 1.728,0.992l16,28c0.361,0.619 0.363,1.383 0.007,2.004c-0.356,0.621 -1.019,1.004 -1.735,1.004z" fill="#ffc107"></path><path d="M22,34.142c0,-0.269 0.047,-0.515 0.143,-0.746c0.094,-0.228 0.229,-0.426 0.403,-0.592c0.171,-0.168 0.382,-0.299 0.624,-0.393c0.244,-0.092 0.518,-0.141 0.824,-0.141c0.306,0 0.582,0.049 0.828,0.141c0.25,0.094 0.461,0.225 0.632,0.393c0.175,0.166 0.31,0.364 0.403,0.592c0.096,0.231 0.143,0.477 0.143,0.746c0,0.27 -0.047,0.516 -0.143,0.74c-0.094,0.225 -0.229,0.419 -0.403,0.588c-0.171,0.166 -0.382,0.296 -0.632,0.392c-0.246,0.092 -0.522,0.138 -0.828,0.138c-0.307,0 -0.58,-0.046 -0.824,-0.139c-0.242,-0.096 -0.453,-0.226 -0.624,-0.392c-0.175,-0.169 -0.31,-0.363 -0.403,-0.588c-0.096,-0.224 -0.143,-0.47 -0.143,-0.739M25.48,30h-2.973l-0.421,-12h3.814z" fill="#5d4037"></path></g></g></svg>