<?xml version="1.0" encoding="UTF-8" standalone="no"?><svg version="1.1" width="24px" height="24px" viewBox="0,0,256,256" id="svg3" sodipodi:docname="w.svg" inkscape:version="1.3 (0e150ed6c4, 2023-07-21)" xmlns:inkscape="http://www.inkscape.org/namespaces/inkscape" xmlns:sodipodi="http://sodipodi.sourceforge.net/DTD/sodipodi-0.dtd" xmlns="http://www.w3.org/2000/svg" xmlns:svg="http://www.w3.org/2000/svg"> <defs id="defs3" /> <sodipodi:namedview id="namedview3" pagecolor="#ffffff" bordercolor="#666666" borderopacity="1.0" inkscape:showpageshadow="2" inkscape:pageopacity="0.0" inkscape:pagecheckerboard="0" inkscape:deskcolor="#d1d1d1" inkscape:zoom="34.208333" inkscape:cx="11.985384" inkscape:cy="14.338611" inkscape:window-width="1920" inkscape:window-height="1017" inkscape:window-x="-8" inkscape:window-y="-8" inkscape:window-maximized="1" inkscape:current-layer="g3" /> <g transform="translate(-16.64,-16.64) scale(1.13,1.13)" id="g3"> <rect id="rect3" width="48.954933" height="136.26309" x="102.27528" y="78.88916" style="stroke-width:10.6667;fill:#0e0e0e;fill-opacity:1" transform="matrix(0.88495575,0,0,0.88495575,14.725664,14.725664)" /> <g fill="#ffc107" fill-rule="nonzero" stroke="none" stroke-width="1" stroke-linecap="butt" stroke-linejoin="miter" stroke-miterlimit="10" stroke-dasharray="" stroke-dashoffset="0" font-family="none" font-weight="none" font-size="none" text-anchor="none" style="mix-blend-mode: normal" id="g2"> <g  transform="scale(10.66667,10.66667)"  id="g1"> <path d="M22.239,18.451l-8.797,-14.635c-0.307,-0.511 -0.846,-0.816 -1.442,-0.816c-0.596,0 -1.135,0.305 -1.441,0.815l-8.798,14.636c-0.312,0.519 -0.32,1.168 -0.022,1.695c0.297,0.527 0.858,0.854 1.464,0.854h17.595c0.605,0 1.167,-0.327 1.464,-0.854c0.298,-0.527 0.289,-1.176 -0.023,-1.695zM13,18h-2v-2h2zM13,14h-2v-5h2z" id="path1" /> </g> </g> </g></svg>